<svg xmlns="http://www.w3.org/2000/svg" viewBox="0 0 800 800"><defs><linearGradient id="bg" x1="0" y1="0" x2="1" y2="1"><stop offset="0" stop-color="#fbfaf7"/><stop offset="0.55" stop-color="#efe8da"/><stop offset="1" stop-color="#0e3a33"/></linearGradient><radialGradient id="glow" cx="28%" cy="20%" r="70%"><stop offset="0" stop-color="#ffffff" stop-opacity=".65"/><stop offset="1" stop-color="#ffffff" stop-opacity="0"/></radialGradient><filter id="shadow" x="-20%" y="-20%" width="140%" height="140%"><feDropShadow dx="0" dy="18" stdDeviation="18" flood-color="#07110f" flood-opacity=".18"/></filter></defs><rect width="800" height="800" fill="url(#bg)"/><rect width="800" height="800" fill="url(#glow)"/><path d="M304 118 C250 215 246 340 302 426 C349 499 337 596 290 694" fill="none" stroke="#f7efe4" stroke-width="34" stroke-linecap="round" filter="url(#shadow)"/><path d="M498 112 C548 224 552 345 499 429 C455 500 466 594 512 690" fill="none" stroke="#f7efe4" stroke-width="34" stroke-linecap="round" filter="url(#shadow)"/><path d="M247 420 C325 456 471 456 552 421" fill="none" stroke="#b89a5e" stroke-width="8" stroke-linecap="round" opacity=".8"/><path d="M247 420 C325 456 471 456 552 421" fill="none" stroke="#0e3a33" stroke-width="2" stroke-dasharray="8 16" opacity=".9"/><circle cx="400" cy="430" r="7" fill="#b89a5e"/></svg>